<?xml version="1.0" standalone="no"?>
<!DOCTYPE svg PUBLIC "-//W3C//DTD SVG 20010904//EN"
 "http://www.w3.org/TR/2001/REC-SVG-20010904/DTD/svg10.dtd">
<svg version="1.0" xmlns="http://www.w3.org/2000/svg"
 width="327.000000pt" height="91.000000pt" viewBox="0 0 327.000000 91.000000"
 preserveAspectRatio="xMidYMid meet">

<g transform="translate(0.000000,91.000000) scale(0.100000,-0.100000)"
fill="#000000" stroke="none">
<path d="M641 834 c-25 -32 -26 -43 -5 -72 18 -26 65 -30 88 -6 24 23 20 70
-6 88 -32 23 -54 20 -77 -10z"/>
<path d="M1970 661 c0 -108 3 -131 15 -131 11 0 15 17 17 72 3 68 5 73 31 88
27 14 29 14 48 -9 14 -18 19 -39 19 -87 0 -36 4 -64 10 -64 6 0 10 33 10 79 0
59 -4 84 -16 95 -17 18 -61 21 -84 6 -12 -8 -16 -2 -20 32 -3 23 -11 43 -17
46 -10 3 -13 -27 -13 -127z"/>
<path d="M2460 660 c0 -109 2 -130 15 -130 10 0 15 10 15 34 0 35 21 63 40 51
6 -3 19 -24 30 -46 11 -21 27 -39 36 -39 11 0 7 14 -18 59 l-33 60 29 30 c46
48 8 38 -41 -11 l-43 -42 0 82 c0 66 -3 82 -15 82 -13 0 -15 -21 -15 -130z"/>
<path d="M2180 765 c0 -8 5 -15 10 -15 6 0 10 7 10 15 0 8 -4 15 -10 15 -5 0
-10 -7 -10 -15z"/>
<path d="M2650 764 c0 -9 5 -14 12 -12 18 6 21 28 4 28 -9 0 -16 -7 -16 -16z"/>
<path d="M1870 745 c0 -13 -8 -28 -17 -34 -17 -9 -17 -10 0 -16 14 -6 17 -19
17 -70 0 -79 6 -95 36 -95 27 0 32 15 9 24 -22 8 -22 136 0 136 8 0 15 4 15 9
0 5 -7 11 -15 15 -8 3 -15 17 -15 31 0 16 -6 25 -15 25 -9 0 -15 -9 -15 -25z"/>
<path d="M2302 704 c-12 -8 -22 -10 -22 -5 0 6 -4 11 -10 11 -6 0 -10 -37 -10
-90 0 -53 4 -90 10 -90 6 0 10 24 10 54 0 72 12 102 45 110 44 11 55 -7 55
-90 0 -59 3 -74 15 -74 24 0 21 151 -3 173 -23 21 -61 22 -90 1z"/>
<path d="M2777 703 c-11 -11 -17 -13 -17 -5 0 7 -7 12 -15 12 -12 0 -15 -17
-15 -90 0 -73 3 -90 15 -90 12 0 15 14 15 69 0 61 3 72 22 85 52 37 78 8 78
-85 0 -39 4 -69 10 -69 6 0 10 35 10 85 0 73 -3 86 -19 95 -29 15 -65 12 -84
-7z"/>
<path d="M2956 696 c-71 -71 10 -214 91 -161 24 16 24 16 21 -17 -4 -45 -45
-61 -90 -35 -38 22 -51 12 -19 -14 33 -27 86 -25 116 6 23 22 25 31 25 129 0
103 -1 106 -22 106 -13 0 -40 3 -60 6 -31 5 -41 2 -62 -20z m94 -14 c26 -21
32 -91 10 -117 -16 -20 -64 -19 -84 1 -25 25 -21 99 6 118 29 21 41 20 68 -2z"/>
<path d="M2180 620 c0 -53 4 -90 10 -90 6 0 10 37 10 90 0 53 -4 90 -10 90 -6
0 -10 -37 -10 -90z"/>
<path d="M2650 620 c0 -73 3 -90 15 -90 12 0 15 17 15 90 0 73 -3 90 -15 90
-12 0 -15 -17 -15 -90z"/>
<path d="M483 675 c-27 -19 -31 -66 -7 -90 25 -25 75 -16 93 17 14 25 14 29
-5 55 -25 34 -51 39 -81 18z"/>
<path d="M641 664 c-26 -33 -26 -49 -1 -74 24 -24 63 -26 84 -4 24 23 20 70
-6 88 -32 23 -54 20 -77 -10z"/>
<path d="M823 675 c-27 -19 -31 -66 -7 -90 25 -25 75 -16 93 17 14 25 14 29
-5 55 -25 34 -51 39 -81 18z"/>
<path d="M100 471 c0 -5 10 -11 22 -13 20 -3 26 -21 67 -196 35 -150 49 -192
60 -190 11 2 25 50 50 171 19 92 36 165 38 163 4 -3 40 -150 78 -313 4 -19 35
-34 35 -18 0 14 80 367 85 375 3 6 13 10 21 10 8 0 14 5 14 10 0 6 -22 10 -50
10 -27 0 -50 -4 -50 -10 0 -5 7 -10 16 -10 13 0 15 -7 11 -27 -3 -16 -16 -81
-28 -145 -13 -65 -26 -118 -29 -118 -3 0 -21 69 -41 153 -30 133 -37 152 -55
155 -19 3 -23 -7 -44 -105 -34 -166 -43 -203 -47 -199 -5 5 -63 256 -63 273 0
7 9 13 20 13 11 0 20 5 20 10 0 6 -28 10 -65 10 -36 0 -65 -4 -65 -9z"/>
<path d="M610 470 c0 -5 11 -10 25 -10 l25 0 0 -180 0 -180 -25 0 c-14 0 -25
-4 -25 -10 0 -6 32 -10 75 -10 43 0 75 4 75 10 0 6 -11 10 -25 10 l-25 0 2
177 c3 176 3 178 26 181 12 2 22 8 22 13 0 5 -34 9 -75 9 -43 0 -75 -4 -75
-10z"/>
<path d="M810 471 c0 -5 10 -11 23 -13 22 -3 22 -5 25 -181 l2 -177 -25 0
c-14 0 -25 -4 -25 -10 0 -6 27 -10 60 -10 33 0 60 4 60 10 0 6 -11 10 -25 10
l-25 0 0 170 c0 94 3 170 8 170 4 0 52 -81 107 -180 133 -239 134 -238 137 7
3 187 3 188 26 191 42 6 11 22 -44 22 -53 0 -76 -16 -31 -22 21 -3 22 -6 25
-145 1 -79 -1 -143 -5 -143 -5 0 -48 70 -96 155 l-88 155 -55 0 c-30 0 -54 -4
-54 -9z"/>
<path d="M1225 471 c-3 -5 7 -11 22 -13 l28 -3 3 -178 2 -177 -30 0 c-16 0
-30 -4 -30 -10 0 -6 32 -10 75 -10 43 0 75 4 75 10 0 6 -11 10 -25 10 l-25 0
2 177 c3 176 3 178 26 181 12 2 22 8 22 13 0 12 -137 12 -145 0z"/>
<path d="M1430 415 c0 -50 3 -65 14 -65 11 0 16 15 18 53 l3 52 43 3 42 3 0
-180 0 -181 -30 0 c-16 0 -30 -4 -30 -10 0 -6 35 -10 85 -10 50 0 85 4 85 10
0 6 -13 10 -30 10 l-30 0 0 181 0 180 43 -3 42 -3 3 -52 c2 -38 7 -53 18 -53
11 0 14 15 14 65 l0 65 -145 0 -145 0 0 -65z"/>
<path d="M2390 220 c0 -118 7 -150 25 -120 4 7 12 7 25 0 57 -31 110 3 117 76
7 66 -21 104 -76 104 -20 0 -42 -5 -49 -12 -9 -9 -12 -2 -12 35 0 35 -4 47
-15 47 -13 0 -15 -21 -15 -130z m122 23 c40 -36 11 -133 -40 -133 -46 0 -75
95 -42 135 16 20 59 19 82 -2z"/>
<path d="M2600 335 c0 -8 7 -15 15 -15 8 0 15 7 15 15 0 8 -7 15 -15 15 -8 0
-15 -7 -15 -15z"/>
<path d="M2690 220 c0 -80 4 -130 10 -130 6 0 10 50 10 130 0 80 -4 130 -10
130 -6 0 -10 -50 -10 -130z"/>
<path d="M1870 185 c0 -57 4 -95 10 -95 6 0 10 28 10 63 0 76 19 110 58 105
27 -3 27 -5 30 -85 2 -65 6 -83 17 -83 12 0 15 15 15 66 0 76 12 104 43 104
38 0 47 -19 47 -97 0 -42 4 -73 10 -73 15 0 13 163 -2 178 -16 16 -70 16 -86
0 -9 -9 -15 -9 -24 0 -16 16 -70 15 -87 0 -11 -10 -14 -10 -18 0 -13 36 -23 1
-23 -83z"/>
<path d="M2191 254 c-31 -39 -29 -107 4 -139 30 -31 82 -33 119 -4 22 18 26
28 26 75 0 70 -21 94 -84 94 -36 0 -48 -5 -65 -26z m108 -8 c24 -28 24 -79 1
-109 -24 -31 -46 -34 -78 -11 -27 19 -31 93 -6 118 19 20 68 21 83 2z"/>
<path d="M2602 188 c2 -62 7 -93 16 -96 9 -3 12 20 12 92 0 80 -3 96 -15 96
-13 0 -15 -15 -13 -92z"/>
<path d="M2781 254 c-31 -39 -29 -107 4 -139 31 -32 86 -34 115 -5 22 22 26
40 10 40 -5 0 -19 -9 -30 -20 -11 -11 -28 -20 -38 -20 -23 0 -52 30 -52 53 0
14 11 17 65 17 64 0 65 0 65 28 0 48 -25 72 -75 72 -35 0 -48 -5 -64 -26z
m103 -16 c8 -12 13 -25 10 -30 -8 -12 -104 -10 -104 3 0 48 66 68 94 27z"/>
</g>
</svg>
