<svg width="16" height="16" viewBox="0 0 16 16" fill="none" xmlns="http://www.w3.org/2000/svg">
<path d="M0.5 12.3731V15.4981H3.625L12.8417 6.28146L9.71667 3.15646L0.5 12.3731ZM15.2583 3.8648C15.3356 3.7877 15.3969 3.69613 15.4387 3.59532C15.4805 3.49451 15.502 3.38644 15.502 3.2773C15.502 3.16816 15.4805 3.06009 15.4387 2.95928C15.3969 2.85847 15.3356 2.76689 15.2583 2.6898L13.3083 0.739797C13.2312 0.662544 13.1397 0.601254 13.0389 0.559437C12.938 0.517619 12.83 0.496094 12.7208 0.496094C12.6117 0.496094 12.5036 0.517619 12.4028 0.559437C12.302 0.601254 12.2104 0.662544 12.1333 0.739797L10.6083 2.2648L13.7333 5.3898L15.2583 3.8648Z" fill="#1F528E"/>
</svg>
