<svg width="40" height="40" viewBox="0 0 40 40" fill="none" xmlns="http://www.w3.org/2000/svg">
<path fill-rule="evenodd" clip-rule="evenodd" d="M10 3.33325C8.67392 3.33325 7.40215 3.86004 6.46447 4.79772C5.52678 5.7354 5 7.00717 5 8.33325V31.6666C5 32.9927 5.52678 34.2644 6.46447 35.2021C7.40215 36.1398 8.67392 36.6666 10 36.6666H20C21.3261 36.6666 22.5979 36.1398 23.5355 35.2021C24.4732 34.2644 25 32.9927 25 31.6666V8.33325C25 7.00717 24.4732 5.7354 23.5355 4.79772C22.5979 3.86004 21.3261 3.33325 20 3.33325H10ZM27.155 12.1549C27.4675 11.8425 27.8914 11.6669 28.3333 11.6669C28.7753 11.6669 29.1991 11.8425 29.5117 12.1549L36.1783 18.8216C36.4908 19.1341 36.6663 19.558 36.6663 19.9999C36.6663 20.4419 36.4908 20.8657 36.1783 21.1783L29.5117 27.8449C29.1973 28.1485 28.7763 28.3165 28.3393 28.3127C27.9023 28.3089 27.4843 28.1336 27.1753 27.8246C26.8663 27.5156 26.691 27.0976 26.6872 26.6606C26.6834 26.2236 26.8514 25.8026 27.155 25.4883L30.9767 21.6666H16.6667C16.2246 21.6666 15.8007 21.491 15.4882 21.1784C15.1756 20.8659 15 20.4419 15 19.9999C15 19.5579 15.1756 19.134 15.4882 18.8214C15.8007 18.5088 16.2246 18.3333 16.6667 18.3333H30.9767L27.155 14.5116C26.8425 14.199 26.667 13.7752 26.667 13.3333C26.667 12.8913 26.8425 12.4675 27.155 12.1549Z" fill="#1F528E"/>
</svg>
