<svg width="56" height="56" viewBox="0 0 56 56" fill="none" xmlns="http://www.w3.org/2000/svg">
<path d="M49 28C49.0069 32.1691 47.7669 36.2451 45.4393 39.704C43.5198 42.5669 40.9245 44.9127 37.8828 46.5341C34.8411 48.1555 31.4468 49.0024 28 49C24.5532 49.0024 21.1589 48.1555 18.1172 46.5341C15.0755 44.9127 12.4802 42.5669 10.5607 39.704C8.73304 36.9797 7.56911 33.865 7.16218 30.6097C6.75526 27.3544 7.11666 24.0491 8.21741 20.9587C9.31817 17.8682 11.1277 15.0787 13.5008 12.8136C15.874 10.5486 18.7448 8.87104 21.8832 7.91547C25.0215 6.95991 28.3401 6.7529 31.5729 7.31106C34.8057 7.86922 37.8627 9.17701 40.499 11.1296C43.1352 13.0822 45.2774 15.6252 46.7536 18.5549C48.2299 21.4846 48.9992 24.7194 49 28Z" stroke="#1F528E" stroke-width="5"/>
<path d="M30.3333 21C30.3333 21.6188 30.0875 22.2123 29.6499 22.6499C29.2123 23.0875 28.6189 23.3333 28 23.3333V28C29.8565 28 31.637 27.2625 32.9498 25.9497C34.2625 24.637 35 22.8565 35 21H30.3333ZM28 23.3333C27.3812 23.3333 26.7877 23.0875 26.3501 22.6499C25.9125 22.2123 25.6667 21.6188 25.6667 21H21C21 22.8565 21.7375 24.637 23.0503 25.9497C24.363 27.2625 26.1435 28 28 28V23.3333ZM25.6667 21C25.6667 20.3812 25.9125 19.7877 26.3501 19.3501C26.7877 18.9125 27.3812 18.6667 28 18.6667V14C26.1435 14 24.363 14.7375 23.0503 16.0503C21.7375 17.363 21 19.1435 21 21H25.6667ZM28 18.6667C28.6189 18.6667 29.2123 18.9125 29.6499 19.3501C30.0875 19.7877 30.3333 20.3812 30.3333 21H35C35 19.1435 34.2625 17.363 32.9498 16.0503C31.637 14.7375 29.8565 14 28 14V18.6667ZM12.054 41.664L9.81635 40.999L9.45468 42.2193L10.283 43.183L12.054 41.664ZM43.946 41.664L45.7194 43.183L46.5454 42.2193L46.1837 40.999L43.946 41.664ZM21 37.3333H35V32.6667H21V37.3333ZM21 32.6667C18.4873 32.6666 16.0417 33.4775 14.0268 34.9787C12.0119 36.4799 10.5352 38.5913 9.81635 40.999L14.2893 42.329C14.7216 40.8852 15.608 39.6193 16.817 38.7193C18.0259 37.8193 19.4929 37.3333 21 37.3333V32.6667ZM28 46.6667C25.3062 46.6697 22.6437 46.0882 20.1964 44.9622C17.7492 43.8363 15.5753 42.1927 13.825 40.145L10.283 43.183C12.4714 45.7415 15.1886 47.7951 18.2472 49.2022C21.3059 50.6092 24.6332 51.3363 28 51.3333V46.6667ZM35 37.3333C38.1663 37.3333 40.8473 39.438 41.7107 42.3313L46.1837 40.999C45.465 38.5917 43.9863 36.4806 41.9718 34.9794C39.9574 33.4782 37.5123 32.6671 35 32.6667V37.3333ZM42.175 40.145C40.4247 42.1927 38.2509 43.8363 35.8036 44.9622C33.3563 46.0882 30.6939 46.6697 28 46.6667V51.3333C31.3668 51.3363 34.6942 50.6092 37.7528 49.2022C40.8115 47.7951 43.531 45.7415 45.7194 43.183L42.175 40.145Z" fill="#1F528E"/>
</svg>
