<svg width="30" height="32" viewBox="0 0 30 32" fill="none" xmlns="http://www.w3.org/2000/svg">
<path d="M2.05 32.0001V14.0501H0V6.68177H8.57C8.23889 6.38844 8.01 6.04121 7.88333 5.6401C7.75667 5.23788 7.69333 4.81566 7.69333 4.37344C7.69333 3.2701 8.07944 2.33177 8.85167 1.55844C9.62389 0.785104 10.5622 0.398438 11.6667 0.398438C12.3056 0.398438 12.8922 0.548437 13.4267 0.848437C13.96 1.14844 14.4206 1.53899 14.8083 2.0201C15.195 1.53233 15.655 1.1401 16.1883 0.843437C16.7217 0.546771 17.3083 0.398438 17.9483 0.398438C19.0528 0.398438 19.9917 0.784548 20.765 1.55677C21.5383 2.32899 21.9244 3.26733 21.9233 4.37177C21.9233 4.8051 21.8578 5.22344 21.7267 5.62677C21.5956 6.0301 21.3683 6.38122 21.045 6.6801H30V14.0518H27.95V32.0001H2.05ZM17.95 2.0651C17.2944 2.0651 16.7461 2.28566 16.305 2.72677C15.8628 3.16899 15.6417 3.71733 15.6417 4.37177C15.6417 5.02622 15.8628 5.57399 16.305 6.0151C16.7472 6.45621 17.295 6.67788 17.9483 6.6801C18.6017 6.68233 19.15 6.46066 19.5933 6.0151C20.0367 5.56955 20.2578 5.02177 20.2567 4.37177C20.2556 3.72177 20.0344 3.17344 19.5933 2.72677C19.1522 2.2801 18.6039 2.05899 17.9483 2.06344M9.35833 4.37177C9.35833 5.0251 9.57944 5.57288 10.0217 6.0151C10.4639 6.45844 11.0122 6.6801 11.6667 6.6801C12.3211 6.6801 12.8689 6.45844 13.31 6.0151C13.7511 5.57177 13.9722 5.02399 13.9733 4.37177C13.9744 3.71955 13.7533 3.17122 13.31 2.72677C12.8667 2.28233 12.3189 2.06233 11.6667 2.06677C11.0144 2.07122 10.4667 2.29233 10.0233 2.7301C9.58 3.16788 9.35889 3.71566 9.36 4.37344M1.66667 8.34677V12.3834H14.1667V8.34677H1.66667ZM14.1667 30.3334V14.0501H3.71667V30.3334H14.1667ZM15.8333 30.3334H26.2833V14.0501H15.8333V30.3334ZM28.3333 12.3834V8.34844H15.8333V12.3834H28.3333Z" fill="white"/>
</svg>
