<svg width="32" height="31" viewBox="0 0 32 31" fill="none" xmlns="http://www.w3.org/2000/svg">
<path d="M7 11.5H13" stroke="white" stroke-width="1.5" stroke-linecap="round" stroke-linejoin="round"/>
<path d="M29.2495 13H25.3465C22.669 13 20.5 15.0145 20.5 17.5C20.5 19.9855 22.6705 22 25.345 22H29.2495C29.3755 22 29.437 22 29.4895 21.997C30.2995 21.9475 30.9445 21.349 30.997 20.5975C31 20.5495 31 20.491 31 20.3755V14.6245C31 14.509 31 14.4505 30.997 14.4025C30.943 13.651 30.2995 13.0525 29.4895 13.003C29.437 13 29.3755 13 29.2495 13Z" stroke="white" stroke-width="1.5"/>
<path d="M29.4475 13C29.3305 10.192 28.9555 8.47 27.742 7.258C25.9855 5.5 23.1565 5.5 17.5 5.5H13C7.3435 5.5 4.5145 5.5 2.758 7.258C1 9.0145 1 11.8435 1 17.5C1 23.1565 1 25.9855 2.758 27.742C4.5145 29.5 7.3435 29.5 13 29.5H17.5C23.1565 29.5 25.9855 29.5 27.742 27.742C28.9555 26.53 29.332 24.808 29.4475 22" stroke="white" stroke-width="1.5"/>
<path d="M7 5.49981L12.6025 1.78431C13.3904 1.27182 14.3101 0.999023 15.25 0.999023C16.1899 0.999023 17.1096 1.27182 17.8975 1.78431L23.5 5.49981" stroke="white" stroke-width="1.5" stroke-linecap="round"/>
<path d="M24.9863 17.5H24.9998" stroke="white" stroke-width="2" stroke-linecap="round" stroke-linejoin="round"/>
</svg>
