<svg width="33" height="29" viewBox="0 0 33 29" fill="none" xmlns="http://www.w3.org/2000/svg">
<path d="M7.96875 0.875V4.81644L3.72262 2.26803L2.46488 4.35697L4.78781 5.75H0.65625V28.9062H7.96875V26.4688H3.09375V8.1875H12.8767C13.8919 7.43188 15.1399 6.96875 16.5 6.96875C16.929 6.96875 17.3312 7.01994 17.7188 7.09306V5.75H13.5884L15.9101 4.35697L14.6524 2.26803L10.4062 4.81644V0.875H7.96875ZM16.5 9.40625C14.4952 9.40625 12.8438 11.0577 12.8438 13.0625C12.8438 13.4915 12.9352 13.8961 13.0729 14.2812H10.4062V28.9062H32.3438V14.2812H29.6771C29.824 13.8915 29.9015 13.479 29.9062 13.0625C29.9062 11.0577 28.2548 9.40625 26.25 9.40625C24.1172 9.40625 22.6693 11.0247 21.7175 12.3776C21.5895 12.5567 21.4883 12.7359 21.375 12.9126C21.2604 12.7359 21.1605 12.5592 21.0325 12.3763C20.0795 11.0248 18.6328 9.40625 16.5 9.40625ZM16.5 11.8438C17.2617 11.8438 18.2526 12.6615 19.0143 13.7487C19.1995 14.0143 19.1715 14.0302 19.319 14.2837H16.5C15.8102 14.2837 15.2812 13.7548 15.2812 13.0649C15.2785 12.904 15.308 12.7442 15.3683 12.5949C15.4285 12.4456 15.5181 12.31 15.6318 12.1961C15.7455 12.0821 15.881 11.9922 16.0301 11.9317C16.1793 11.8712 16.3391 11.8413 16.5 11.8438ZM26.25 11.8438C26.9398 11.8438 27.4688 12.3727 27.4688 13.0625C27.4688 13.7523 26.9398 14.2812 26.25 14.2812H23.431C23.5797 14.029 23.5505 14.0131 23.7357 13.7474C24.4987 12.6628 25.4883 11.8438 26.25 11.8438ZM12.8438 16.7188H20.1562V26.4688H12.8438V16.7188ZM22.5938 16.7188H29.9062V26.4688H22.5938V16.7188Z" fill="white"/>
</svg>
